# xmcd
#
# Track frame offsets:
#	150
#	15819
#	31341
#	54873
#	72748
#	95892
#	113283
#	134561
#	152507
#	164972
#	184504
#	198974
#	221397
#	241112
#	257887
#	282429
#	302753
#	321928
#
# Disc length: 4546 seconds
#
# Revision: 1
# Processed by: cddbd v1.5.2PL0 Copyright (c) Steve Scherf et al.
# Submitted via: audiograbber 1.83.01
#
DISCID=fa11c012
DTITLE=TOMA BEBIC - LEUTE MOJ 
DYEAR=2005
DGENRE=Acoustic
TTITLE0=Leute moj
TTITLE1=Nevera
TTITLE2=Tu-tu auto, vrag ti piz odnija
TTITLE3=Nije gotovo kad je gotovo, nego je...
TTITLE4=Marcelina
TTITLE5=Smoci svoj...
TTITLE6=Devizna balada
TTITLE7=Covik koji se smije
TTITLE8=Dioklecijan
TTITLE9=Neznanom pomorcu
TTITLE10=Lanternista
TTITLE11=Nosac br. 21
TTITLE12=Barba Filina lula
TTITLE13=Pjesnikova smrt
TTITLE14=Prica agava
TTITLE15=Tajna mora
TTITLE16=Sjecanje
TTITLE17=Ca smo na ovon svitu
EXTD=
EXTT0=
EXTT1=
EXTT2=
EXTT3=
EXTT4=
EXTT5=
EXTT6=
EXTT7=
EXTT8=
EXTT9=
EXTT10=
EXTT11=
EXTT12=
EXTT13=
EXTT14=
EXTT15=
EXTT16=
EXTT17=
PLAYORDER=
